<svg width="137" height="50" viewBox="0 0 137 50" fill="none" xmlns="http://www.w3.org/2000/svg">
<g id="sindy_logo_Horizontal_light 1">
<g id="Group">
<path id="Vector" d="M41.4 46.4801H10.4212C7.02596 46.4801 4.27417 43.7483 4.27417 40.3779V9.62222C4.27417 6.25174 7.02596 3.52002 10.4212 3.52002H41.4C44.7952 3.52002 47.547 6.25174 47.547 9.62222V40.3751C47.547 43.7456 44.7952 46.4773 41.4 46.4773V46.4801Z" fill="#FCF9F0"/>
<g id="Group_2">
<g id="Group_3">
<g id="Clip path group">
<mask id="mask0_2420_2864" style="mask-type:luminance" maskUnits="userSpaceOnUse" x="8" y="7" width="36" height="36">
<g id="clippath">
<path id="Vector_2" d="M39.5134 7.9668H12.3077C10.3449 7.9668 8.75366 9.5464 8.75366 11.4949V38.5023C8.75366 40.4508 10.3449 42.0304 12.3077 42.0304H39.5134C41.4763 42.0304 43.0675 40.4508 43.0675 38.5023V11.4949C43.0675 9.5464 41.4763 7.9668 39.5134 7.9668Z" fill="white"/>
</g>
</mask>
<g mask="url(#mask0_2420_2864)">
<g id="Group_4">
<g id="Group_5">
<path id="Vector_3" d="M9.1368 7.9668H8.75073V42.0331H9.1368V7.9668Z" fill="#EED4B4"/>
<path id="Vector_4" d="M9.5234 7.9668H9.13733V42.0331H9.5234V7.9668Z" fill="#EED6B5"/>
<path id="Vector_5" d="M9.91219 7.9668H9.52612V42.0331H9.91219V7.9668Z" fill="#EED6B6"/>
<path id="Vector_6" d="M10.2982 7.9668H9.91211V42.0331H10.2982V7.9668Z" fill="#EED6B7"/>
<path id="Vector_7" d="M10.6842 7.9668H10.2981V42.0331H10.6842V7.9668Z" fill="#EED7B7"/>
<path id="Vector_8" d="M11.0702 7.9668H10.6841V42.0331H11.0702V7.9668Z" fill="#EED7B9"/>
<path id="Vector_9" d="M11.4563 7.9668H11.0702V42.0331H11.4563V7.9668Z" fill="#EED9BA"/>
<path id="Vector_10" d="M11.8421 7.9668H11.4561V42.0331H11.8421V7.9668Z" fill="#EED9BB"/>
<path id="Vector_11" d="M12.2287 7.9668H11.8427V42.0331H12.2287V7.9668Z" fill="#EFD9BB"/>
<path id="Vector_12" d="M12.6146 7.9668H12.2285V42.0331H12.6146V7.9668Z" fill="#EFDBBC"/>
<path id="Vector_13" d="M13.0006 7.9668H12.6145V42.0331H13.0006V7.9668Z" fill="#EFDABD"/>
<path id="Vector_14" d="M13.3867 7.9668H13.0006V42.0331H13.3867V7.9668Z" fill="#EFDBBE"/>
<path id="Vector_15" d="M13.7725 7.9668H13.3865V42.0331H13.7725V7.9668Z" fill="#EFDCBF"/>
<path id="Vector_16" d="M14.1585 7.9668H13.7725V42.0331H14.1585V7.9668Z" fill="#EFDCC0"/>
<path id="Vector_17" d="M14.5445 7.9668H14.1584V42.0331H14.5445V7.9668Z" fill="#EFDDC1"/>
<path id="Vector_18" d="M14.9311 7.9668H14.545V42.0331H14.9311V7.9668Z" fill="#EFDDC2"/>
<path id="Vector_19" d="M15.3199 7.9668H14.9338V42.0331H15.3199V7.9668Z" fill="#EFDEC3"/>
<path id="Vector_20" d="M15.7058 7.9668H15.3197V42.0331H15.7058V7.9668Z" fill="#EFDFC5"/>
<path id="Vector_21" d="M16.0919 7.9668H15.7058V42.0331H16.0919V7.9668Z" fill="#EFDFC5"/>
<path id="Vector_22" d="M16.4779 7.9668H16.0918V42.0331H16.4779V7.9668Z" fill="#EFE0C6"/>
<path id="Vector_23" d="M16.8639 7.9668H16.4778V42.0331H16.8639V7.9668Z" fill="#EFE2C8"/>
<path id="Vector_24" d="M17.2498 7.9668H16.8638V42.0331H17.2498V7.9668Z" fill="#EFE1C8"/>
<path id="Vector_25" d="M17.6364 7.9668H17.2504V42.0331H17.6364V7.9668Z" fill="#EFE2CA"/>
<path id="Vector_26" d="M18.0223 7.9668H17.6362V42.0331H18.0223V7.9668Z" fill="#F0E2CB"/>
<path id="Vector_27" d="M18.4083 7.9668H18.0222V42.0331H18.4083V7.9668Z" fill="#EFE3CC"/>
<path id="Vector_28" d="M18.7944 7.9668H18.4083V42.0331H18.7944V7.9668Z" fill="#EFE4CE"/>
<path id="Vector_29" d="M19.1803 7.9668H18.7942V42.0331H19.1803V7.9668Z" fill="#EFE4CE"/>
<path id="Vector_30" d="M19.5669 7.9668H19.1808V42.0331H19.5669V7.9668Z" fill="#EFE5CF"/>
<path id="Vector_31" d="M19.9528 7.9668H19.5668V42.0331H19.9528V7.9668Z" fill="#EFE6D0"/>
<path id="Vector_32" d="M20.3412 7.9668H19.9551V42.0331H20.3412V7.9668Z" fill="#EFE6D1"/>
<path id="Vector_33" d="M20.7276 7.9668H20.3416V42.0331H20.7276V7.9668Z" fill="#EFE6D2"/>
<path id="Vector_34" d="M21.1135 7.9668H20.7274V42.0331H21.1135V7.9668Z" fill="#EFE7D3"/>
<path id="Vector_35" d="M21.4997 7.9668H21.1136V42.0331H21.4997V7.9668Z" fill="#EFE7D4"/>
<path id="Vector_36" d="M21.8857 7.9668H21.4996V42.0331H21.8857V7.9668Z" fill="#EFE9D5"/>
<path id="Vector_37" d="M22.2716 7.9668H21.8855V42.0331H22.2716V7.9668Z" fill="#F0E9D6"/>
<path id="Vector_38" d="M22.6582 7.9668H22.2721V42.0331H22.6582V7.9668Z" fill="#F0EAD7"/>
<path id="Vector_39" d="M23.0442 7.9668H22.6581V42.0331H23.0442V7.9668Z" fill="#F1EAD8"/>
<path id="Vector_40" d="M23.43 7.9668H23.0439V42.0331H23.43V7.9668Z" fill="#F1EBD9"/>
<path id="Vector_41" d="M23.816 7.9668H23.4299V42.0331H23.816V7.9668Z" fill="#F1ECDA"/>
<path id="Vector_42" d="M24.202 7.9668H23.8159V42.0331H24.202V7.9668Z" fill="#F1EBDB"/>
<path id="Vector_43" d="M24.588 7.9668H24.2019V42.0331H24.588V7.9668Z" fill="#F1EDDC"/>
<path id="Vector_44" d="M24.974 7.9668H24.5879V42.0331H24.974V7.9668Z" fill="#F1EEDD"/>
<path id="Vector_45" d="M25.3606 7.9668H24.9745V42.0331H25.3606V7.9668Z" fill="#F1EEDE"/>
<path id="Vector_46" d="M25.7494 7.9668H25.3633V42.0331H25.7494V7.9668Z" fill="#F1EFDF"/>
<path id="Vector_47" d="M26.6145 7.9668H25.7493V42.0331H26.6145V7.9668Z" fill="#F1EFDF"/>
<path id="Vector_48" d="M27.4796 7.9668H26.6144V42.0331H27.4796V7.9668Z" fill="#F3F0E0"/>
<path id="Vector_49" d="M28.3451 7.9668H27.4799V42.0331H28.3451V7.9668Z" fill="#F3F0E2"/>
<path id="Vector_50" d="M29.2101 7.9668H28.3448V42.0331H29.2101V7.9668Z" fill="#F4F1E2"/>
<path id="Vector_51" d="M30.0779 7.9668H29.2126V42.0331H30.0779V7.9668Z" fill="#F4F2E3"/>
<path id="Vector_52" d="M30.9432 7.9668H30.078V42.0331H30.9432V7.9668Z" fill="#F5F3E4"/>
<path id="Vector_53" d="M31.8085 7.9668H30.9432V42.0331H31.8085V7.9668Z" fill="#F5F3E6"/>
<path id="Vector_54" d="M32.6768 7.9668H31.8115V42.0331H32.6768V7.9668Z" fill="#F7F4E6"/>
<path id="Vector_55" d="M33.5418 7.9668H32.6765V42.0331H33.5418V7.9668Z" fill="#F8F5E7"/>
<path id="Vector_56" d="M34.4072 7.9668H33.542V42.0331H34.4072V7.9668Z" fill="#F8F5E8"/>
<path id="Vector_57" d="M35.2722 7.9668H34.407V42.0331H35.2722V7.9668Z" fill="#F9F6EA"/>
<path id="Vector_58" d="M36.1401 7.9668H35.2749V42.0331H36.1401V7.9668Z" fill="#F9F7EC"/>
<path id="Vector_59" d="M37.0056 7.9668H36.1404V42.0331H37.0056V7.9668Z" fill="#FBF8EC"/>
<path id="Vector_60" d="M37.8706 7.9668H37.0054V42.0331H37.8706V7.9668Z" fill="#FBF9ED"/>
<path id="Vector_61" d="M38.7384 7.9668H37.8732V42.0331H38.7384V7.9668Z" fill="#FBF9EF"/>
<path id="Vector_62" d="M39.6039 7.9668H38.7386V42.0331H39.6039V7.9668Z" fill="#FCFAF0"/>
<path id="Vector_63" d="M40.469 7.9668H39.6038V42.0331H40.469V7.9668Z" fill="#FEFCF1"/>
<path id="Vector_64" d="M41.3344 7.9668H40.4691V42.0331H41.3344V7.9668Z" fill="#FFFCF2"/>
<path id="Vector_65" d="M42.2024 7.9668H41.3372V42.0331H42.2024V7.9668Z" fill="#FFFDF3"/>
<path id="Vector_66" d="M43.0673 7.9668H42.202V42.0331H43.0673V7.9668Z" fill="#FFFEF5"/>
</g>
</g>
</g>
</g>
<path id="Vector_67" d="M39.5134 42.4626H12.3076C10.109 42.4626 8.31824 40.6877 8.31824 38.5023V11.495C8.31824 9.31233 10.1062 7.53467 12.3076 7.53467H39.5134C41.712 7.53467 43.5 9.30961 43.5 11.4923V38.4996C43.5 40.6823 41.712 42.4599 39.5106 42.4599H39.5134V42.4626ZM12.3076 8.39632C10.5854 8.39632 9.18621 9.78528 9.18621 11.495V38.5023C9.18621 40.212 10.5854 41.601 12.3076 41.601H39.5134C41.2356 41.601 42.6348 40.212 42.6348 38.5023V11.495C42.6348 9.78528 41.2356 8.39632 39.5134 8.39632H12.3076Z" fill="#0D3F2E"/>
</g>
<g id="Group_6">
<path id="Vector_68" d="M27.0112 32.3949C27.5041 32.3677 27.997 32.3269 28.4898 32.3133C29.1305 32.2943 29.5467 32.5688 29.596 33.2456C29.6426 33.8871 29.4317 34.4416 28.7499 34.5476C23.8515 35.3223 18.8052 33.7077 16.267 29.0026C16.0972 28.6873 15.8891 28.5079 15.5742 28.3693C14.7336 28.0051 14.1285 27.4152 13.8547 26.5128C13.6849 25.9583 13.8191 25.5452 14.3147 25.2598C14.8322 24.9635 15.3004 25.026 15.7166 25.4799C16.5791 26.4204 16.5873 26.415 17.0035 25.306C17.1924 24.8058 17.4991 24.4144 18.0851 24.5231C18.7367 24.6427 19.183 25.0396 19.1776 25.7545C19.1693 26.4884 18.8435 27.1298 18.4465 27.717C18.2028 28.0785 18.263 28.285 18.4903 28.6357C20.2673 31.4027 23.3313 32.5226 27.014 32.3894V32.3949H27.0112Z" fill="#0D3F2E"/>
<path id="Vector_69" d="M38.029 22.37C37.8976 23.7835 36.9639 24.9522 35.4114 25.6182C33.774 26.3222 32.2872 25.9253 30.9921 24.7864C30.1844 24.077 29.7244 23.1447 29.5847 22.0846C29.4725 21.2257 29.9297 20.6168 30.6772 20.5353C31.3262 20.4646 31.7752 20.9349 31.8847 21.7938C32.0271 22.9082 32.6925 23.566 33.7357 23.6285C34.7789 23.691 35.4196 23.18 35.6907 22.0683C35.7153 21.9623 35.7564 21.859 35.7783 21.753C35.9344 21.0463 36.2547 20.5163 37.0953 20.5951C37.7716 20.6576 38.0619 21.1306 38.0263 22.3727L38.029 22.37Z" fill="#0D3F2E"/>
<path id="Vector_70" d="M23.6927 25.9228C21.6145 25.863 19.8155 24.1778 19.6348 22.1202C19.5527 21.1906 19.8676 20.6687 20.574 20.5627C21.1983 20.4675 21.6993 20.878 21.8718 21.7451C22.069 22.729 22.4249 23.5064 23.5804 23.6151C24.5963 23.7103 25.3355 23.2591 25.6641 22.2914C25.7599 22.0087 25.8448 21.7206 25.916 21.4297C26.0502 20.8752 26.2993 20.4186 26.962 20.5328C27.6109 20.6442 28.0955 21.0166 28.0791 21.7369C28.049 23.0661 27.4795 24.1533 26.4198 24.9633C25.6203 25.5749 24.7222 25.9527 23.6872 25.9228H23.6927Z" fill="#0D3F2E"/>
</g>
</g>
</g>
<g id="Group_7">
<path id="Vector_71" fill-rule="evenodd" clip-rule="evenodd" d="M115.94 36.2054C115.827 36.1891 115.712 36.1755 115.592 36.1701C115.102 36.1456 114.455 36.1429 113.974 36.1347C113.815 36.1347 113.538 36.1347 113.349 36.1537C113.333 36.1537 113.215 36.2054 113.182 36.2054C113.136 36.2054 113.095 36.1619 113.04 36.1537C112.835 36.1211 112.462 36.1293 112.281 36.1701C111.758 36.0912 111.238 36.1755 110.693 36.1537C110.231 36.1347 109.713 36.0939 109.209 36.1184C109.135 36.1238 109.092 36.1619 109.004 36.1701C108.905 36.1809 108.845 36.1429 108.727 36.1347C108.292 36.1184 107.531 36.151 107.21 36.2054C107.164 36.1891 107.079 36.1891 107.035 36.1701C106.928 36.1755 106.876 36.2108 106.794 36.2217C106.266 36.1075 105.847 36.238 105.379 36.1701C105.083 36.1972 105.02 36.1972 104.691 36.1701C103.574 36.2244 102.591 36.1701 101.584 36.2217C101.54 36.2217 101.48 36.1864 101.408 36.1891C100.713 36.2054 99.6588 36.1157 98.7854 36.2407C98.7744 36.1972 98.9442 36.2489 98.8894 36.1891C98.5444 36.1809 97.7723 36.0396 97.5122 36.1891C97.4601 36.1891 97.5012 36.1374 97.441 36.1347C96.9262 36.1266 96.4388 36.1347 95.9569 36.1347C95.3299 36.1347 94.6782 36.0532 94.1635 36.1537C93.7555 36.1456 93.353 36.1537 93.0272 36.1184C93.0244 36.1972 92.789 36.0939 92.8875 36.1701C92.6274 36.1619 92.3235 36.0994 92.0223 36.1891C91.5842 36.1266 90.9626 36.151 90.5766 36.2217C90.478 36.2217 90.4944 36.1701 90.4013 36.1701C90.0207 36.3005 89.213 36.1592 88.8132 36.257C88.5038 36.1891 87.9562 36.3005 87.707 36.2217C87.3566 36.2842 87.0444 36.2217 86.6365 36.2924C85.1223 36.2516 83.1016 36.3087 81.5984 36.412C81.0699 36.3658 80.3662 36.4228 79.909 36.4989C79.783 36.4989 79.7419 36.4555 79.668 36.431C79.5612 36.4391 79.5229 36.4826 79.427 36.4989C78.622 36.5696 77.5432 36.4636 76.7328 36.605C76.3111 36.5859 75.9086 36.5642 75.6321 36.6376C75.5526 36.6484 75.58 36.605 75.5253 36.605C73.8605 36.6756 72.1054 36.6158 70.6597 36.7246C69.9724 36.6702 69.2879 36.7626 68.5541 36.7762C68.3378 36.7762 68.1187 36.7409 67.8997 36.7409C67.6834 36.7409 67.4698 36.7871 67.2425 36.7952C66.8866 36.8034 66.5279 36.7572 66.1719 36.7762C65.931 36.7925 65.6982 36.8523 65.4491 36.8632C64.707 36.8985 63.9568 36.8904 63.2066 36.9338C63.0971 36.9175 63.16 36.9882 63.0697 36.9855C62.9601 36.9583 62.7822 36.9665 62.6179 36.9665C62.4865 36.9583 62.6562 36.8958 62.481 36.8985C62.481 37.0045 62.1223 36.9692 61.8266 36.9665C61.7882 37.0018 61.6924 37.0127 61.6568 37.0534C60.9696 37.01 60.6382 37.0888 60.1372 37.1758C59.5512 37.1921 58.7407 37.2655 58.0015 37.279C57.18 37.2899 56.3148 37.3117 55.6166 37.434C55.3236 37.4095 54.8663 37.3932 54.6528 37.434C54.7322 37.6161 55.2524 37.521 55.6166 37.5373C56.0437 37.5617 56.3312 37.627 56.794 37.6243C56.783 37.6514 56.8268 37.6569 56.8268 37.6759C56.2628 37.8308 55.3729 37.665 54.8609 37.7629C54.5378 37.7194 54.19 37.7466 53.8971 37.7982C53.908 37.8879 54.1462 37.8689 54.2777 37.9015C54.2037 37.964 54.1188 37.9423 54.1736 38.0401C53.8149 38.0755 53.3631 38.0211 53.103 38.0592C53.0756 38.1135 53.2426 38.0782 53.2071 38.1407C53.1742 38.2712 52.8922 38.2712 52.5855 38.263C52.4185 38.2902 52.5171 38.4478 52.309 38.4533C52.3363 38.5566 52.3911 38.6381 52.3418 38.7441C52.5444 38.7767 52.5992 38.8827 52.758 38.9344C52.769 39.0023 52.6184 38.9806 52.654 39.0567C54.0559 39.3802 56.0656 39.3611 57.6921 39.2823C57.8865 39.3231 58.0781 39.3611 58.174 39.4508C58.4615 39.4753 58.7106 39.4155 58.9023 39.4862C58.7654 39.584 58.5217 39.6329 58.3136 39.6955C58.393 39.7308 58.3026 39.7634 58.3136 39.8151C57.7769 39.9129 57.2047 39.8667 56.6598 39.902V39.9537C56.2409 39.9945 55.6385 40.0216 55.3482 40.0244C56.0328 40.0842 57.0349 40.1032 57.9713 40.0407C58.0699 40.0597 58.2013 40.0651 58.2807 40.0923C58.3711 40.0842 58.3875 40.0407 58.4916 40.0407C59.6087 40.1141 60.5397 40.0162 61.5966 40.0244C61.613 39.989 61.5719 39.9782 61.5637 39.9537C61.8786 40.0488 62.5385 39.9537 63.0094 40.0244C63.5516 39.9917 64.1101 39.9347 64.6687 39.9374C65.4792 39.9428 66.3417 39.9537 67.0865 39.8857C67.5382 39.8422 67.9982 39.9102 68.5678 39.8857C70.186 39.8096 71.9767 39.8776 73.6415 39.7797C74.5505 39.7281 75.4979 39.8123 76.4371 39.7471C76.9354 39.7118 77.6062 39.7417 78.162 39.6601C78.2798 39.6438 78.3072 39.6792 78.3674 39.6955C78.4824 39.671 78.4413 39.6683 78.5426 39.6601C81.0973 39.6927 83.871 39.6085 86.2723 39.5568C87.0417 39.5378 87.8549 39.6357 88.5832 39.5378C89.0816 39.5922 89.6812 39.5297 90.3438 39.5568C91.3624 39.5976 92.5042 39.584 93.4516 39.6085C93.5556 39.5813 93.301 39.5922 93.2407 39.5895C94.3907 39.5269 96.2061 39.6574 97.5916 39.6411C97.8763 39.6411 98.12 39.6493 98.3144 39.6601C98.6594 39.6764 98.9633 39.6493 99.2837 39.6601C99.3522 39.6656 99.3905 39.6601 99.3878 39.6248C100.119 39.6764 100.847 39.7009 101.529 39.6601C101.608 39.6601 101.565 39.7118 101.633 39.7118C101.712 39.6873 101.827 39.6846 101.91 39.6601C102.276 39.7824 102.778 39.6955 103.01 39.6411C103.607 39.7226 104.44 39.7145 105.253 39.6955C105.806 39.6792 106.693 39.7498 107.254 39.7634C107.345 39.7308 107.487 39.7308 107.531 39.6764C108.265 39.8314 109.382 39.6438 110.118 39.7634C110.198 39.7634 110.25 39.7634 110.258 39.7281C110.723 39.7824 111.561 39.777 112.194 39.7797C113.166 39.7906 114.064 39.7417 114.918 39.7797C115.425 39.8069 115.937 39.8857 116.402 39.7988C116.547 39.8178 116.701 39.8287 116.86 39.8287L115.95 36.2135L115.94 36.2054Z" fill="#FCF9F0"/>
<g id="Group_8">
<path id="Vector_72" d="M57.3227 28.1569C57.9387 28.4097 58.615 28.6135 59.3543 28.763C60.0936 28.9125 60.8466 29.0131 61.6133 29.0593C62.3799 29.1055 63.0809 29.0919 63.7161 29.0185C64.3514 28.9424 64.8716 28.7983 65.2796 28.5809C65.6875 28.3662 65.8902 28.078 65.8902 27.722C65.8902 27.2708 65.6109 26.931 65.0523 26.7054C64.4937 26.4798 63.7928 26.2814 62.9495 26.1128C62.1061 25.9443 61.1971 25.7568 60.2223 25.5475C59.2475 25.3409 58.3385 25.0256 57.4952 24.6016C56.6518 24.1775 55.9509 23.6013 55.3923 22.8674C54.8337 22.1335 54.5545 21.1577 54.5545 19.9345C54.5545 17.9992 55.3074 16.526 56.8134 15.5203C58.3193 14.5146 60.5016 14.0117 63.3602 14.0117C64.7429 14.0117 65.9258 14.1259 66.9115 14.3515C67.8972 14.5771 68.7104 14.8217 69.3539 15.0854C70.1096 15.4061 70.7256 15.754 71.1993 16.1291L69.6359 20.2743C69.2389 19.9916 68.735 19.7116 68.1299 19.429C67.5248 19.1463 66.8759 18.8935 66.1831 18.6679C65.4904 18.4423 64.7949 18.2629 64.094 18.1324C63.393 18.0019 62.7578 17.9584 62.191 18.0047C61.6215 18.0509 61.1642 18.2031 60.8137 18.4559C60.4633 18.7086 60.288 19.1001 60.288 19.6274C60.288 20.0976 60.5728 20.451 61.1396 20.6847C61.7064 20.9212 62.4183 21.1278 63.2698 21.3045C64.1214 21.4811 65.0414 21.6768 66.0243 21.8834C67.01 22.09 67.9273 22.4053 68.7789 22.8293C69.6304 23.2534 70.3423 23.8296 70.9091 24.5635C71.4759 25.2974 71.7606 26.265 71.7606 27.4692C71.7606 29.6491 71.0159 31.2664 69.5318 32.3183C68.045 33.3702 65.871 33.8976 63.0124 33.8976C61.3449 33.8976 59.9595 33.7888 58.8505 33.5741C57.7416 33.3594 56.838 33.1175 56.1371 32.8538C55.3211 32.5358 54.6777 32.177 54.204 31.7829L55.9098 27.2708C56.2302 27.6078 56.7011 27.9041 57.3145 28.1596H57.3227V28.1569Z" fill="#FCF9F0"/>
<path id="Vector_73" d="M75.6295 18.8365C74.778 18.8365 74.0606 18.5511 73.4856 17.9749C72.9079 17.4014 72.6204 16.6919 72.6204 15.8466C72.6204 15.0013 72.9079 14.2918 73.4856 13.7183C74.0633 13.1448 74.778 12.8594 75.6295 12.8594C76.4811 12.8594 77.1957 13.1475 77.7735 13.7183C78.3512 14.2918 78.6387 15.0013 78.6387 15.8466C78.6387 16.6919 78.3485 17.4041 77.7735 17.9749C77.1985 18.5457 76.4811 18.8365 75.6295 18.8365ZM72.9024 19.6275H78.3293V33.5009H72.9024V19.6275Z" fill="#FCF9F0"/>
<path id="Vector_74" d="M85.2046 33.5581H79.7777V19.6277H85.2046V22.759L88.9832 19.2607C90.3084 19.2607 91.431 19.4157 92.3483 19.7255C93.2656 20.0354 94.0103 20.4975 94.5771 21.1064C95.1439 21.7179 95.5574 22.4844 95.812 23.4059C96.0666 24.3273 96.1953 25.3983 96.1953 26.6214V33.5581H90.5412V26.6214C90.5412 25.3439 90.3331 24.4116 89.9169 23.8299C89.5007 23.2482 88.7422 22.9547 87.6443 22.9547C87.1322 22.9547 86.7215 23.0362 86.4094 23.1939C86.0972 23.3542 85.8563 23.55 85.6838 23.7864C85.514 24.0229 85.3935 24.2648 85.3278 24.5203C85.2621 24.7731 85.2183 24.996 85.1991 25.1835V33.5581H85.2046Z" fill="#FCF9F0"/>
<path id="Vector_75" d="M115.513 33.5009H110.089V30.5409L106.795 33.8679C103.821 33.8679 101.548 33.2618 99.9768 32.0495C98.4051 30.8372 97.6193 28.9997 97.6193 26.5371C97.6193 25.2976 97.8219 24.2158 98.2299 23.2944C98.6378 22.3729 99.1855 21.6064 99.8782 20.9948C100.568 20.3833 101.37 19.9266 102.279 19.6276C103.189 19.3259 104.144 19.1764 105.149 19.1764C106.285 19.1764 107.255 19.364 108.06 19.7391C108.865 20.1142 109.541 20.5572 110.091 21.0655V14.2974H115.515V33.5009H115.513ZM110.089 26.4501C110.05 26.1131 109.984 25.7461 109.889 25.352C109.793 24.9579 109.637 24.5909 109.42 24.2512C109.201 23.9141 108.9 23.6314 108.511 23.4058C108.123 23.1802 107.635 23.0688 107.049 23.0688C105.932 23.0688 105.029 23.3786 104.336 23.9984C103.643 24.6181 103.298 25.4634 103.298 26.5371C103.298 27.7956 103.643 28.717 104.336 29.3014C105.026 29.8831 105.929 30.1767 107.049 30.1767C107.731 30.1767 108.27 30.0408 108.667 29.769C109.064 29.4971 109.368 29.19 109.577 28.8529C109.823 28.4778 109.993 28.0348 110.089 27.5265V26.4501Z" fill="#FCF9F0"/>
<path id="Vector_76" d="M124.775 26.9308L124.179 29.5239L124.606 29.6082L125.23 26.0828L127.021 19.6245H132.502L128.184 31.4973C127.522 33.3782 126.859 34.8759 126.197 35.9958C125.534 37.1157 124.827 37.9692 124.08 38.5617C123.332 39.1543 122.522 39.5402 121.651 39.7169C120.781 39.8963 119.822 39.986 118.782 39.986L117.561 35.811C118.127 35.811 118.697 35.7838 119.264 35.7267C119.83 35.6696 120.381 35.5201 120.912 35.2755C121.443 35.0309 121.931 34.6639 122.374 34.1747C122.818 33.6854 123.201 33.0086 123.524 32.1442H122.33L116.649 19.6245H122.13L124.773 26.9281H124.775V26.9308Z" fill="#FCF9F0"/>
</g>
</g>
</g>
</svg>
